<mxfile host="www.draw.io" modified="2020-03-11T03:58:58.864Z" agent="Mozilla/5.0 (Windows NT 6.1; Win64; x64) AppleWebKit/537.36 (KHTML, like Gecko) Chrome/76.0.3809.100 Safari/537.36" etag="Bc8sW0cMZ6HhDHwNSakx" version="12.8.2" type="github">
  <diagram id="epvcNGvbh02QtZAVjntg" name="第 1 页">
    <mxGraphModel dx="1313" dy="788" grid="1" gridSize="10" guides="1" tooltips="1" connect="1" arrows="1" fold="1" page="1" pageScale="1" pageWidth="827" pageHeight="1169" math="0" shadow="0">
      <root>
        <mxCell id="0" />
        <mxCell id="1" parent="0" />
        <mxCell id="C9qiPQPoezqdPZaxFEtF-1" value="1：只有包名" style="rounded=0;whiteSpace=wrap;html=1;" vertex="1" parent="1">
          <mxGeometry x="250" y="130" width="70" height="40" as="geometry" />
        </mxCell>
        <mxCell id="C9qiPQPoezqdPZaxFEtF-2" value="包名类名" style="rounded=0;whiteSpace=wrap;html=1;" vertex="1" parent="1">
          <mxGeometry x="150" y="130" width="60" height="40" as="geometry" />
        </mxCell>
        <mxCell id="C9qiPQPoezqdPZaxFEtF-3" value="包名类名Uri" style="rounded=0;whiteSpace=wrap;html=1;" vertex="1" parent="1">
          <mxGeometry x="340" y="130" width="76" height="40" as="geometry" />
        </mxCell>
        <mxCell id="C9qiPQPoezqdPZaxFEtF-4" value="intentAction&amp;nbsp;" style="rounded=0;whiteSpace=wrap;html=1;" vertex="1" parent="1">
          <mxGeometry x="450" y="130" width="90" height="40" as="geometry" />
        </mxCell>
        <mxCell id="C9qiPQPoezqdPZaxFEtF-5" value="额外数据&lt;br&gt;putExtra(Intent.EXTRA_KEY_EVENT, keyEvent)" style="rounded=0;whiteSpace=wrap;html=1;" vertex="1" parent="1">
          <mxGeometry x="600" y="120" width="120" height="60" as="geometry" />
        </mxCell>
      </root>
    </mxGraphModel>
  </diagram>
</mxfile>
